<svg xmlns="http://www.w3.org/2000/svg" viewBox="0 0 64 64">
  <style>.ink{stroke:#1e2424}.fill{fill:#1e2424}@media (prefers-color-scheme:dark){.ink{stroke:#e6e2da}.fill{fill:#e6e2da}}</style>
  <defs>
    <path id="body" d="M32 17C28 13.5 22 12.5 17 14.5C9.5 17.5 6 25.5 6.5 34.5C7 46.5 14 58 23 58.5C27 58.7 29 56.5 32 56.5C35 56.5 37 58.7 41 58.5C50 58 57 46.5 57.5 34.5C58 25.5 54.5 17.5 47 14.5C42 12.5 36 13.5 32 17Z"/>
    <clipPath id="top"><rect x="0" y="0" width="64" height="24"/></clipPath>
  </defs>
  <use href="#body" class="fill" clip-path="url(#top)"/>
  <use href="#body" class="ink" fill="none" stroke-width="4.5" stroke-linejoin="round"/>
  <path d="M32 17C32 12 32.4 9.5 33.6 6.5" class="ink" fill="none" stroke-width="3.6" stroke-linecap="round"/>
  <path d="M33.6 7.5C35.6 3 40.5 1.3 45 2C44 6.5 39.5 9.5 33.6 7.5Z" fill="#4a8a3c"/>
  <path d="M20.5 39.5L28.5 47.5L44 31.5" fill="none" stroke="#c8322b" stroke-width="5.5" stroke-linecap="round" stroke-linejoin="round"/>
</svg>
