<svg xmlns="http://www.w3.org/2000/svg" viewBox="0 0 400 96" role="img" aria-label="YAPCO — Yet Another Planner Creator">
  <style>.ink{stroke:#1e2424}.fill{fill:#1e2424}.muted{fill:#525c5a}@media (prefers-color-scheme:dark){.ink{stroke:#e6e2da}.fill{fill:#e6e2da}.muted{fill:#a3aba9}}</style>
  <defs>
    <path id="body" d="M32 17C28 13.5 22 12.5 17 14.5C9.5 17.5 6 25.5 6.5 34.5C7 46.5 14 58 23 58.5C27 58.7 29 56.5 32 56.5C35 56.5 37 58.7 41 58.5C50 58 57 46.5 57.5 34.5C58 25.5 54.5 17.5 47 14.5C42 12.5 36 13.5 32 17Z"/>
    <clipPath id="top"><rect x="0" y="0" width="64" height="24"/></clipPath>
  </defs>
  <g transform="translate(4 6) scale(1.3)">
    <use href="#body" class="fill" clip-path="url(#top)"/>
    <g class="ink" fill="none" stroke-linecap="round" stroke-linejoin="round">
      <use href="#body" stroke-width="3.5"/>
      <path d="M20 9V19M44 9V19" stroke-width="3.5"/>
      <path d="M32 17C32 13 32.3 10.5 33.2 8" stroke-width="2.8"/>
      <rect x="15" y="31" width="8" height="8" rx="2" stroke-width="2.6"/>
      <rect x="15" y="43.5" width="8" height="8" rx="2" stroke-width="2.6"/>
      <path d="M28.5 35H47M28.5 47.5H44" stroke-width="2.6"/>
    </g>
    <path d="M16.8 34.6L19.4 37.2L25 30" fill="none" stroke="#c8322b" stroke-width="2.8" stroke-linecap="round" stroke-linejoin="round"/>
    <path d="M33.2 8.5C34.8 4.5 38.5 2.8 41.8 3.2C41 6.8 37.6 9.6 33.2 8.5Z" fill="#4a8a3c"/>
  </g>
  <text x="104" y="56" class="fill" font-family="'Source Sans 3','Segoe UI',Helvetica,Arial,sans-serif" font-size="46" font-weight="600" letter-spacing="4">YAPCO</text>
  <text x="106" y="80" class="muted" font-family="'Source Sans 3','Segoe UI',Helvetica,Arial,sans-serif" font-size="17" letter-spacing="0.5">Yet Another Planner Creator</text>
</svg>
